<?xml version="1.0" encoding="utf-8"?>
<!-- Generator: Adobe Illustrator 18.0.0, SVG Export Plug-In . SVG Version: 6.00 Build 0)  -->
<!DOCTYPE svg PUBLIC "-//W3C//DTD SVG 1.1//EN" "http://www.w3.org/Graphics/SVG/1.1/DTD/svg11.dtd">
<svg version="1.1" id="Layer_1" xmlns="http://www.w3.org/2000/svg" xmlns:xlink="http://www.w3.org/1999/xlink" x="0px" y="0px"
	 width="2144.2px" height="96px" viewBox="0 0 2144.2 96" enable-background="new 0 0 2144.2 96" xml:space="preserve">
<g>
	<rect x="1077.4" y="0.2" fill="#3A3D40" width="143.3" height="95.6"/>
	<polygon fill="#4E5053" points="1137.8,20.2 1145.9,20.2 1148.4,12.4 1151,20.2 1159.1,20.1 1152.5,24.9 1155.1,32.7 1148.5,27.9 
		1141.9,32.7 1144.4,25 	"/>
	<path fill="#4E5053" d="M1170.7,22.4c1.6,3.2,2.5,6.9,2.5,10.7c0,13.3-10.8,24.2-24.2,24.2c-13.3,0-24.2-10.8-24.2-24.2
		c0-3.9,0.9-7.5,2.5-10.7c-3.5,4.6-5.6,10.3-5.6,16.5c0,15,12.2,27.3,27.3,27.3c15.1,0,27.3-12.2,27.3-27.3
		C1176.3,32.7,1174.2,27,1170.7,22.4z"/>
	<rect x="1077.4" y="0.2" fill="none" width="143.3" height="95.6"/>
</g>
<g>
	<rect x="153.9" y="0" fill="#3A3D40" width="143.3" height="96"/>
	<polygon fill="#4E5053" points="177.1,28.8 185.9,35.2 182.5,24.8 191.4,18.4 180.4,18.4 177.1,8 173.7,18.4 162.7,18.4 
		171.6,24.8 168.2,35.2 	"/>
	<polygon fill="#4E5053" points="203,9.6 207.1,8.6 203.2,7 203.5,2.8 200.8,6 196.9,4.5 199.1,8 196.5,11.2 200.5,10.2 202.7,13.7 
			"/>
	<polygon fill="#4E5053" points="203,44.3 207.1,43.3 203.2,41.7 203.5,37.5 200.8,40.7 196.9,39.2 199.1,42.7 196.5,45.9 
		200.5,44.9 202.7,48.4 	"/>
	<polygon fill="#4E5053" points="212.7,20.4 216.8,21.1 213.9,18.1 215.8,14.4 212.1,16.2 209.2,13.2 209.8,17.4 206,19.2 
		210.2,19.9 210.8,24.1 	"/>
	<polygon fill="#4E5053" points="211.4,35.3 214.9,37.6 213.5,33.7 216.7,31.1 212.6,31.3 211.1,27.4 210,31.4 205.8,31.5 
		209.3,33.9 208.1,37.9 	"/>
</g>
<g>
	<rect x="2000.9" y="0" fill="#3A3D40" width="143.3" height="96"/>
	<polygon fill="#4E5053" points="2085.5,53 2094.4,55.9 2088.9,48.3 2094.4,40.7 2085.5,43.6 2079.9,36 2079.9,45.4 2071,48.3 
		2079.9,51.2 2079.9,60.6 	"/>
	<path fill="#4E5053" d="M2054.9,68.8c-11.3,0-20.5-9.2-20.5-20.5c0-11.3,9.2-20.5,20.5-20.5c5.3,0,10.2,2,13.9,5.4
		c-4.6-6.2-12-10.2-20.2-10.2c-13.9,0-25.2,11.3-25.2,25.2c0,13.9,11.3,25.2,25.2,25.2c8.3,0,15.6-4,20.2-10.2
		C2065.1,66.7,2060.3,68.8,2054.9,68.8z"/>
</g>
<g>
	<rect x="923.5" y="0" fill="#3A3D40" width="143.3" height="96"/>
	<circle fill="#4E5053" cx="995.2" cy="48" r="29.2"/>
</g>
<g>
	<rect x="1693.1" y="0" fill="#3A3D40" width="143.3" height="96"/>
	<g>
		<rect x="1746.4" y="10.7" fill="#4E5053" width="90" height="10.7"/>
		<rect x="1746.4" y="32" fill="#4E5053" width="90" height="10.7"/>
		<polygon fill="#4E5053" points="1725.1,32 1746.4,32 1746.4,21.3 1725.1,21.3 1725.1,0 1714.4,0 1714.4,21.3 1693.1,21.3 
			1693.1,32 1714.4,32 1714.4,53.3 1693.1,53.3 1693.1,64 1836.4,64 1836.4,53.3 1725.1,53.3 		"/>
		<rect x="1693.1" y="74.7" fill="#4E5053" width="143.3" height="10.7"/>
	</g>
</g>
<g>
	<rect x="1385.2" y="0" fill="#3A3D40" width="143.3" height="96"/>
	<polygon fill="#4E5053" points="1528.6,37.9 1453.2,37.9 1453.2,0 1433.1,0 1433.1,37.9 1385.2,37.9 1385.2,58 1433.1,58 
		1433.1,96 1453.2,96 1453.2,58 1528.6,58 	"/>
</g>
<g>
	<rect x="1231.3" y="0" fill="#3A3D40" width="143.3" height="96"/>
	<rect x="1266.8" y="0" fill="#4E5053" width="72.3" height="96"/>
	<path fill="#3A3D40" d="M1302.3,83.4l0.4-14c0-1-0.7-2.4-2.2-2.1l-18.6,2.4l1.8-5.2c0.4-1.2,0.3-2.3-0.7-3.1l-11.3-11.1l3.8-1.8
		c0.7-0.5,1-1.3,0.7-2.4l-3.2-10.1l8.5,1.9c1.3,0.2,1.8-0.1,2.1-0.9l1.7-3.6l6.4,8.1c1.3,1.4,2.9,0.5,2.6-1.2l-4.1-17.6l3.8,2.6
		c1.2,0.9,3.1,1.2,4-0.4l4.9-10l4.9,10c0.9,1.6,2.8,1.3,4,0.4l3.8-2.6l-3.4,17.5c-0.3,1.7,1.3,2.5,2.6,1.2l6.2-8.1l1.7,3.4
		c0.3,0.8,0.7,1.1,2.1,0.9l8.1-1.5l-2.8,10.2c-0.3,1.1,0.2,1.2,0.8,1.6l3.1,1.9l-14.8,11.7c-1,0.8-1.1,1.9-0.7,3.1l1.4,4.6
		l-13.3-1.9c-1.5-0.3-2.2,1.1-2.2,2.1l0.4,14H1302.3z"/>
</g>
<g>
	<rect x="307.8" y="0" fill="#4E5053" width="143.3" height="96"/>
	<polygon fill="#3A3D40" points="435.9,0 323.1,0 379.5,38.3 	"/>
	<polygon fill="#3A3D40" points="365.3,48 307.8,8.9 307.8,87.1 	"/>
	<polygon fill="#3A3D40" points="393.7,48 451.2,87.1 451.2,8.9 	"/>
	<polygon fill="#3A3D40" points="379.5,57.7 323.1,96 435.9,96 	"/>
</g>
<g>
	<rect x="461.7" y="0" fill="#3A3D40" width="143.3" height="96"/>
	<rect x="509.5" y="0" fill="#4E5053" width="95.6" height="96"/>
	<rect x="557.3" y="0" fill="#3A3D40" width="47.8" height="96"/>
	<polygon fill="#3A3D40" points="533.4,53.8 540.8,59.2 538,50.5 545.3,45.2 536.2,45.2 533.4,36.5 530.6,45.2 521.5,45.2 
		528.9,50.5 526.1,59.2 	"/>
</g>
<g>
	<rect x="1539.2" y="0" fill="#3A3D40" width="143.3" height="96"/>
	<polygon fill="#4E5053" points="1610.8,58 1625.7,68.9 1620.1,51.3 1634.9,40.5 1616.5,40.5 1610.8,22.9 1605.1,40.5 1586.7,40.5 
		1601.6,51.3 1595.9,68.9 	"/>
</g>
<g>
	<polygon fill="#3A3D40" points="1990.3,0 1847,0 1847,96 1990.3,0 	"/>
	<polygon fill="#3A3D40" points="1847,96 1847,96 1990.3,96 1990.3,0 	"/>
	<polygon fill="#4E5053" points="1990.3,0 1957.2,0 1847,71.3 1847,96 1881.3,96 1990.3,25.4 	"/>
	<polygon fill="#3A3D40" points="1990.3,0 1966.6,0 1847,77.4 1847,96 1871.9,96 1990.3,19.3 	"/>
</g>
<g>
	<rect x="769.6" y="0" fill="#3A3D40" width="143.3" height="96"/>
	<rect x="769.6" y="37.4" fill="#4E5053" width="143.3" height="21.3"/>
	<rect x="769.6" y="41.7" fill="#3A3D40" width="143.3" height="12.6"/>
</g>
<g>
	<rect x="615.7" y="0" fill="#3A3D40" width="143.3" height="96"/>
	<circle fill="#4E5053" cx="687.3" cy="48" r="13.5"/>
	<path fill="#4E5053" d="M687.3,32.4c0.5,0,0.9,0,1.3,0.1L695.2,0h-15.8l6.5,32.4C686.4,32.4,686.9,32.4,687.3,32.4z"/>
	<path fill="#4E5053" d="M702.9,46.6c0,0.5,0.1,0.9,0.1,1.4c0,0.5,0,0.9-0.1,1.4l56.1,6.8V39.9L702.9,46.6z"/>
	<path fill="#4E5053" d="M700.3,38.9L759,0h-26.8l-33.9,36.6C699.1,37.3,699.7,38.1,700.3,38.9z"/>
	<path fill="#4E5053" d="M671.8,46.6c0,0.5-0.1,0.9-0.1,1.4c0,0.5,0,0.9,0.1,1.4l-56.1,6.8V39.9L671.8,46.6z"/>
	<path fill="#4E5053" d="M674.3,38.9L615.7,0h26.8l33.9,36.6C675.6,37.3,674.9,38.1,674.3,38.9z"/>
	<path fill="#4E5053" d="M687.3,63.6c0.5,0,0.9,0,1.3-0.1l6.5,32.4h-15.8l6.5-32.4C686.4,63.6,686.9,63.6,687.3,63.6z"/>
	<path fill="#4E5053" d="M700.3,57.1L759,96h-26.8l-33.9-36.6C699.1,58.7,699.7,57.9,700.3,57.1z"/>
	<path fill="#4E5053" d="M674.3,57.1L615.7,96h26.8l33.9-36.6C675.6,58.7,674.9,57.9,674.3,57.1z"/>
</g>
<g>
	<rect x="0" y="0" fill="#3A3D40" width="143.3" height="96"/>
	<polygon fill="#4E5053" points="103.1,38.6 81.1,38.6 81.1,16.5 62.2,16.5 62.2,38.6 40.2,38.6 40.2,57.4 62.2,57.4 62.2,79.5 
		81.1,79.5 81.1,57.4 103.1,57.4 	"/>
</g>
</svg>
