<?xml version="1.0" encoding="utf-8"?>
<!-- Generator: Adobe Illustrator 18.0.0, SVG Export Plug-In . SVG Version: 6.00 Build 0)  -->
<!DOCTYPE svg PUBLIC "-//W3C//DTD SVG 1.1//EN" "http://www.w3.org/Graphics/SVG/1.1/DTD/svg11.dtd">
<svg version="1.1" id="Layer_1" xmlns="http://www.w3.org/2000/svg" xmlns:xlink="http://www.w3.org/1999/xlink" x="0px" y="0px"
	 width="1077px" height="48px" viewBox="0 0 1077 48" enable-background="new 0 0 1077 48" xml:space="preserve">
<g>
	<rect x="538.7" y="0.1" fill="#3A3D40" width="71.7" height="47.8"/>
	<polygon fill="#4E5053" points="568.9,10.1 573,10.1 574.2,6.2 575.5,10.1 579.5,10.1 576.2,12.4 577.5,16.4 574.2,13.9 571,16.4 
		572.2,12.5 	"/>
	<path fill="#4E5053" d="M585.3,11.2c0.8,1.6,1.2,3.4,1.2,5.3c0,6.6-5.4,12.1-12.1,12.1c-6.7,0-12.1-5.4-12.1-12.1
		c0-1.9,0.5-3.8,1.2-5.4c-1.8,2.3-2.8,5.1-2.8,8.2c0,7.5,6.1,13.6,13.7,13.6c7.5,0,13.7-6.1,13.7-13.6
		C588.2,16.4,587.1,13.5,585.3,11.2z"/>
	<rect x="538.7" y="0.1" fill="none" width="71.7" height="47.8"/>
</g>
<g>
	<rect x="76.9" fill="#3A3D40" width="71.7" height="48"/>
	<polygon fill="#4E5053" points="88.6,14.4 92.9,17.6 91.2,12.4 95.7,9.2 90.2,9.2 88.6,4 86.8,9.2 81.3,9.2 85.8,12.4 84.1,17.6 	
		"/>
	<polygon fill="#4E5053" points="101.5,4.8 103.6,4.3 101.6,3.5 101.8,1.4 100.4,3 98.4,2.2 99.6,4 98.2,5.6 100.2,5.1 101.3,6.8 	
		"/>
	<polygon fill="#4E5053" points="101.5,22.1 103.6,21.6 101.6,20.9 101.8,18.8 100.4,20.4 98.4,19.6 99.6,21.4 98.2,23 100.2,22.5 
		101.3,24.2 	"/>
	<polygon fill="#4E5053" points="106.3,10.2 108.4,10.6 106.9,9.1 107.9,7.2 106.1,8.1 104.6,6.6 104.9,8.7 103,9.6 105.1,9.9 
		105.4,12.1 	"/>
	<polygon fill="#4E5053" points="105.7,17.6 107.4,18.8 106.8,16.9 108.3,15.6 106.3,15.6 105.6,13.7 105,15.7 102.9,15.8 104.7,17 
		104.1,19 	"/>
</g>
<g>
	<rect x="1000.5" fill="#3A3D40" width="71.6" height="48"/>
	<polygon fill="#4E5053" points="1042.8,26.5 1047.2,28 1044.4,24.1 1047.2,20.4 1042.8,21.8 1039.9,18 1039.9,22.7 1035.5,24.1 
		1039.9,25.6 1039.9,30.3 	"/>
	<path fill="#4E5053" d="M1027.4,34.4c-5.7,0-10.2-4.6-10.2-10.2s4.6-10.2,10.2-10.2c2.7,0,5.1,1,6.9,2.7c-2.3-3.1-6-5.1-10.1-5.1
		c-7,0-12.6,5.6-12.6,12.6s5.7,12.6,12.6,12.6c4.2,0,7.8-2,10.1-5.1C1032.6,33.3,1030.2,34.4,1027.4,34.4z"/>
</g>
<g>
	<rect x="461.8" fill="#3A3D40" width="71.7" height="48"/>
	<circle fill="#4E5053" cx="497.6" cy="24" r="14.6"/>
</g>
<g>
	<rect x="846.5" fill="#3A3D40" width="71.7" height="48"/>
	<g>
		<rect x="873.2" y="5.3" fill="#4E5053" width="45" height="5.3"/>
		<rect x="873.2" y="16" fill="#4E5053" width="45" height="5.4"/>
		<polygon fill="#4E5053" points="862.5,16 873.2,16 873.2,10.6 862.5,10.6 862.5,0 857.2,0 857.2,10.6 846.5,10.6 846.5,16 
			857.2,16 857.2,26.6 846.5,26.6 846.5,32 918.2,32 918.2,26.6 862.5,26.6 		"/>
		<rect x="846.5" y="37.3" fill="#4E5053" width="71.7" height="5.3"/>
	</g>
</g>
<g>
	<rect x="692.6" fill="#3A3D40" width="71.7" height="48"/>
	<polygon fill="#4E5053" points="764.3,19 726.6,19 726.6,0 716.5,0 716.5,19 692.6,19 692.6,29 716.5,29 716.5,48 726.6,48 
		726.6,29 764.3,29 	"/>
</g>
<g>
	<rect x="615.7" fill="#3A3D40" width="71.7" height="48"/>
	<rect x="633.4" fill="#4E5053" width="36.2" height="48"/>
	<path fill="#3A3D40" d="M651.2,41.7l0.2-7c0-0.5-0.3-1.2-1.1-1l-9.3,1.2l0.9-2.6c0.2-0.6,0.2-1.1-0.3-1.5l-5.7-5.5l1.9-0.9
		c0.3-0.2,0.5-0.6,0.3-1.2l-1.6-5.1l4.2,1c0.7,0.1,0.9,0,1-0.5l0.8-1.8l3.2,4c0.7,0.7,1.5,0.2,1.3-0.6l-2-8.8l1.9,1.3
		c0.6,0.4,1.5,0.6,2-0.2l2.5-5l2.5,5c0.5,0.8,1.4,0.6,2,0.2l1.9-1.3l-1.7,8.7c-0.2,0.9,0.7,1.2,1.3,0.6l3.1-4.1l0.8,1.7
		c0.2,0.4,0.3,0.5,1,0.5l4-0.8l-1.4,5.1c-0.2,0.5,0.1,0.6,0.4,0.8l1.5,1l-7.4,5.9c-0.5,0.4-0.5,1-0.3,1.5l0.7,2.3l-6.7-1
		c-0.8-0.2-1.1,0.5-1.1,1l0.2,7H651.2z"/>
</g>
<g>
	<rect x="153.9" fill="#4E5053" width="71.6" height="48"/>
	<polygon fill="#3A3D40" points="217.9,0 161.6,0 189.8,19.1 	"/>
	<polygon fill="#3A3D40" points="182.6,24 153.9,4.4 153.9,43.5 	"/>
	<polygon fill="#3A3D40" points="196.9,24 225.6,43.5 225.6,4.4 	"/>
	<polygon fill="#3A3D40" points="189.8,28.9 161.6,48 217.9,48 	"/>
</g>
<g>
	<rect x="230.8" fill="#3A3D40" width="71.6" height="48"/>
	<rect x="254.8" fill="#4E5053" width="47.8" height="48"/>
	<rect x="278.6" fill="#3A3D40" width="23.9" height="48"/>
	<polygon fill="#3A3D40" points="266.7,26.9 270.4,29.6 269,25.2 272.6,22.6 268.1,22.6 266.7,18.2 265.3,22.6 260.8,22.6 
		264.5,25.2 263,29.6 	"/>
</g>
<g>
	<rect x="769.6" fill="#3A3D40" width="71.7" height="48"/>
	<polygon fill="#4E5053" points="805.4,29 812.8,34.5 810,25.6 817.5,20.2 808.2,20.2 805.4,11.4 802.5,20.2 793.3,20.2 800.8,25.6 
		798,34.5 	"/>
</g>
<g>
	<polygon fill="#3A3D40" points="995.2,0 923.5,0 923.5,48 	"/>
	<polygon fill="#3A3D40" points="923.5,48 923.5,48 995.2,48 995.2,0 	"/>
	<polygon fill="#4E5053" points="995.2,0 978.6,0 923.5,35.7 923.5,48 940.7,48 995.2,12.7 	"/>
	<polygon fill="#3A3D40" points="995.2,0 983.3,0 923.5,38.7 923.5,48 936,48 995.2,9.6 	"/>
</g>
<g>
	<rect x="384.8" fill="#3A3D40" width="71.6" height="48"/>
	<rect x="384.8" y="18.7" fill="#4E5053" width="71.6" height="10.6"/>
	<rect x="384.8" y="20.8" fill="#3A3D40" width="71.6" height="6.3"/>
</g>
<g>
	<rect x="307.9" fill="#3A3D40" width="71.6" height="48"/>
	<circle fill="#4E5053" cx="343.6" cy="24" r="6.8"/>
	<path fill="#4E5053" d="M343.6,16.2c0.2,0,0.5,0,0.6,0L347.6,0h-7.9l3.2,16.2C343.2,16.2,343.5,16.2,343.6,16.2z"/>
	<path fill="#4E5053" d="M351.5,23.3c0,0.2,0,0.5,0,0.7s0,0.5,0,0.7l28,3.4V20L351.5,23.3z"/>
	<path fill="#4E5053" d="M350.1,19.5L379.5,0h-13.4l-17,18.3C349.5,18.6,349.9,19,350.1,19.5z"/>
	<path fill="#4E5053" d="M335.9,23.3c0,0.2,0,0.5,0,0.7s0,0.5,0,0.7l-28,3.4V20L335.9,23.3z"/>
	<path fill="#4E5053" d="M337.1,19.5L307.9,0h13.4l17,18.3C337.8,18.6,337.5,19,337.1,19.5z"/>
	<path fill="#4E5053" d="M343.6,31.8c0.2,0,0.5,0,0.6,0l3.2,16.2h-7.9l3.2-16.2C343.2,31.8,343.5,31.8,343.6,31.8z"/>
	<path fill="#4E5053" d="M350.1,28.5L379.5,48h-13.4l-17-18.3C349.5,29.4,349.9,29,350.1,28.5z"/>
	<path fill="#4E5053" d="M337.1,28.5L307.9,48h13.4l17-18.3C337.8,29.4,337.5,29,337.1,28.5z"/>
</g>
<g>
	<rect x="0" fill="#3A3D40" width="71.7" height="48"/>
	<polygon fill="#4E5053" points="51.5,19.3 40.5,19.3 40.5,8.2 31.1,8.2 31.1,19.3 20.1,19.3 20.1,28.7 31.1,28.7 31.1,39.8 
		40.5,39.8 40.5,28.7 51.5,28.7 	"/>
</g>
</svg>
